# Blender 4.0.2
# www.blender.org
mtllib LightCone.mtl
o Cone
v 0.000000 0.001483 -1.000000
v 0.195090 0.001483 -0.980785
v 0.382683 0.001483 -0.923880
v 0.555570 0.001483 -0.831470
v 0.707107 0.001483 -0.707107
v 0.831470 0.001483 -0.555570
v 0.923880 0.001483 -0.382683
v 0.980785 0.001483 -0.195090
v 1.000000 0.001483 0.000000
v 0.980785 0.001483 0.195090
v 0.923880 0.001483 0.382683
v 0.831470 0.001483 0.555570
v 0.707107 0.001483 0.707107
v 0.555570 0.001483 0.831470
v 0.382683 0.001483 0.923880
v 0.195090 0.001483 0.980785
v 0.000000 0.001483 1.000000
v -0.195090 0.001483 0.980785
v -0.382683 0.001483 0.923880
v -0.555570 0.001483 0.831470
v -0.707107 0.001483 0.707107
v -0.831470 0.001483 0.555570
v -0.923880 0.001483 0.382683
v -0.980785 0.001483 0.195090
v -1.000000 0.001483 0.000000
v -0.980785 0.001483 -0.195090
v -0.923880 0.001483 -0.382683
v -0.831470 0.001483 -0.555570
v -0.707107 0.001483 -0.707107
v -0.555570 0.001483 -0.831470
v -0.382683 0.001483 -0.923880
v -0.195090 0.001483 -0.980785
v 0.000000 0.532564 0.000000
vn 0.0461 0.8822 -0.4685
vn 0.1367 0.8822 -0.4505
vn 0.2219 0.8822 -0.4152
vn 0.2987 0.8822 -0.3639
vn 0.3639 0.8822 -0.2987
vn 0.4152 0.8822 -0.2219
vn 0.4505 0.8822 -0.1367
vn 0.4685 0.8822 -0.0461
vn 0.4685 0.8822 0.0461
vn 0.4505 0.8822 0.1367
vn 0.4152 0.8822 0.2219
vn 0.3639 0.8822 0.2987
vn 0.2987 0.8822 0.3639
vn 0.2219 0.8822 0.4152
vn 0.1367 0.8822 0.4505
vn 0.0461 0.8822 0.4685
vn -0.0461 0.8822 0.4685
vn -0.1367 0.8822 0.4505
vn -0.2219 0.8822 0.4152
vn -0.2987 0.8822 0.3639
vn -0.3639 0.8822 0.2987
vn -0.4152 0.8822 0.2219
vn -0.4505 0.8822 0.1367
vn -0.4685 0.8822 0.0461
vn -0.4685 0.8822 -0.0461
vn -0.4505 0.8822 -0.1367
vn -0.4152 0.8822 -0.2219
vn -0.3639 0.8822 -0.2987
vn -0.2987 0.8822 -0.3639
vn -0.2219 0.8822 -0.4152
vn -0.1367 0.8822 -0.4505
vn -0.0461 0.8822 -0.4685
vt 0.500000 1.000000
vt 0.500000 0.500000
vt 0.597545 0.990393
vt 0.691342 0.961940
vt 0.777785 0.915735
vt 0.853553 0.853553
vt 0.915735 0.777785
vt 0.961940 0.691342
vt 0.990393 0.597545
vt 1.000000 0.500000
vt 0.990393 0.402455
vt 0.961940 0.308658
vt 0.915735 0.222215
vt 0.853553 0.146447
vt 0.777785 0.084265
vt 0.691342 0.038060
vt 0.597545 0.009607
vt 0.500000 0.000000
vt 0.402455 0.009607
vt 0.308658 0.038060
vt 0.222215 0.084265
vt 0.146447 0.146447
vt 0.084265 0.222215
vt 0.038060 0.308658
vt 0.009607 0.402455
vt 0.000000 0.500000
vt 0.009607 0.597545
vt 0.038060 0.691342
vt 0.084265 0.777785
vt 0.146447 0.853553
vt 0.222215 0.915735
vt 0.308658 0.961940
vt 0.402455 0.990393
s 0
f 1/1/1 33/2/1 2/3/1
f 2/3/2 33/2/2 3/4/2
f 3/4/3 33/2/3 4/5/3
f 4/5/4 33/2/4 5/6/4
f 5/6/5 33/2/5 6/7/5
f 6/7/6 33/2/6 7/8/6
f 7/8/7 33/2/7 8/9/7
f 8/9/8 33/2/8 9/10/8
f 9/10/9 33/2/9 10/11/9
f 10/11/10 33/2/10 11/12/10
f 11/12/11 33/2/11 12/13/11
f 12/13/12 33/2/12 13/14/12
f 13/14/13 33/2/13 14/15/13
f 14/15/14 33/2/14 15/16/14
f 15/16/15 33/2/15 16/17/15
f 16/17/16 33/2/16 17/18/16
f 17/18/17 33/2/17 18/19/17
f 18/19/18 33/2/18 19/20/18
f 19/20/19 33/2/19 20/21/19
f 20/21/20 33/2/20 21/22/20
f 21/22/21 33/2/21 22/23/21
f 22/23/22 33/2/22 23/24/22
f 23/24/23 33/2/23 24/25/23
f 24/25/24 33/2/24 25/26/24
f 25/26/25 33/2/25 26/27/25
f 26/27/26 33/2/26 27/28/26
f 27/28/27 33/2/27 28/29/27
f 28/29/28 33/2/28 29/30/28
f 29/30/29 33/2/29 30/31/29
f 30/31/30 33/2/30 31/32/30
f 31/32/31 33/2/31 32/33/31
f 32/33/32 33/2/32 1/1/32
